<?xml version="1.0" standalone="no"?>
<!DOCTYPE svg PUBLIC "-//W3C//DTD SVG 20010904//EN"
 "http://www.w3.org/TR/2001/REC-SVG-20010904/DTD/svg10.dtd">
<svg version="1.0" xmlns="http://www.w3.org/2000/svg"
 width="520.000000pt" height="520.000000pt" viewBox="0 0 520.000000 520.000000"
 preserveAspectRatio="xMidYMid meet">
<metadata>
Created by potrace 1.11, written by Peter Selinger 2001-2013
</metadata>
<g transform="translate(0.000000,520.000000) scale(0.100000,-0.100000)"
fill="#000000" stroke="none">
<path d="M562 4481 c-13 -55 -29 -105 -37 -111 -12 -10 -15 -10 -15 0 0 8 -2
11 -5 8 -3 -3 -1 -17 5 -32 21 -55 69 -285 80 -384 12 -102 7 -714 -6 -789 -3
-18 -1 -40 4 -50 7 -11 6 -26 0 -42 -5 -15 -11 -112 -14 -218 -3 -135 -8 -205
-19 -236 -8 -25 -15 -55 -15 -68 1 -35 -26 -166 -44 -220 -9 -26 -17 -66 -18
-89 -1 -26 -11 -56 -25 -77 -20 -29 -23 -43 -18 -85 3 -27 2 -47 -2 -45 -4 3
-9 -7 -10 -21 -1 -15 -8 -70 -17 -122 -8 -52 -15 -114 -16 -137 0 -23 -5 -45
-10 -48 -6 -4 -8 -16 -4 -28 4 -12 8 -31 10 -42 1 -11 11 -57 22 -102 13 -58
16 -84 8 -87 -7 -3 -7 -5 2 -5 6 -1 12 -10 12 -21 0 -11 4 -20 9 -20 10 0 66
-119 64 -137 0 -7 3 -11 7 -8 7 5 42 -44 69 -97 8 -15 25 -37 38 -50 23 -21
25 -21 52 -5 15 9 44 18 64 21 20 2 40 7 44 9 14 9 183 17 183 9 0 -4 14 -9
30 -10 29 -2 30 -1 30 40 0 24 -7 70 -14 103 -9 38 -11 64 -5 71 13 16 0 44
-20 44 -13 0 -13 2 -2 9 8 5 9 10 3 12 -9 4 -21 52 -28 119 -1 14 -3 27 -4 30
-1 3 -2 8 -1 13 0 4 -3 7 -9 7 -5 0 -10 -7 -10 -15 0 -20 -16 -19 -24 1 -3 8
-2 13 2 10 4 -2 16 2 27 10 10 8 14 14 9 14 -13 0 -36 48 -29 60 3 5 1 11 -5
15 -5 3 -10 17 -10 31 0 20 -5 24 -30 24 -16 0 -30 4 -30 9 0 4 11 6 25 3 14
-2 25 0 25 5 0 18 -11 21 -41 13 -35 -10 -36 -4 -5 33 l24 27 -19 62 c-20 62
-20 62 1 113 21 52 47 86 94 119 14 10 26 24 26 29 0 6 -13 -2 -30 -18 -16
-16 -30 -25 -30 -22 0 14 81 162 98 179 9 9 40 23 69 31 48 14 51 14 46 -1 -6
-15 -5 -15 14 0 21 19 88 24 98 8 4 -6 11 -7 17 -4 11 7 244 6 316 -1 52 -5
209 -49 294 -82 63 -24 71 -31 110 -92 23 -36 54 -82 69 -101 15 -19 29 -46
33 -60 4 -14 18 -69 32 -122 23 -93 50 -351 40 -387 -11 -36 -15 -165 -7 -175
5 -6 11 -27 13 -46 2 -19 8 -35 13 -35 6 0 16 -4 24 -9 8 -5 32 -10 54 -12 35
-3 47 2 118 59 43 34 79 65 79 70 0 4 10 28 21 53 19 39 20 48 9 70 -9 16 -10
28 -3 35 13 13 -30 164 -58 202 -11 15 -17 33 -13 39 5 7 3 8 -5 4 -8 -5 -11
-3 -9 5 1 8 -18 46 -43 84 -25 39 -65 101 -89 140 l-45 69 1 211 c1 168 4 218
17 248 9 20 20 37 25 37 5 0 31 33 58 72 52 77 179 240 232 298 18 19 32 40
32 46 0 7 5 14 11 16 6 2 12 18 13 35 1 17 9 40 19 50 9 11 17 25 17 31 0 7 5
12 10 12 6 0 10 9 10 19 0 11 4 22 8 25 5 3 7 56 5 118 -3 88 -10 128 -29 181
-13 38 -21 73 -18 79 4 7 2 8 -4 4 -10 -6 -52 105 -52 139 0 7 -20 48 -45 89
-25 42 -45 82 -45 89 0 31 -108 124 -188 161 -34 17 -70 37 -80 46 -10 9 -65
40 -124 67 -58 28 -114 60 -124 71 -33 34 -126 45 -471 57 -165 6 -176 7 -270
41 -54 20 -113 40 -132 46 -47 14 -142 63 -168 87 -12 12 -26 21 -31 21 -5 0
-39 16 -75 35 -37 19 -70 35 -74 34 -20 -3 -34 2 -28 11 3 6 1 10 -4 10 -6 0
-11 7 -11 16 0 9 -6 14 -12 11 -7 -2 -28 5 -46 15 -18 10 -36 18 -40 18 -5 0
-18 -45 -30 -99z m125 -73 c-3 -8 -6 -5 -6 6 -1 11 2 17 5 13 3 -3 4 -12 1
-19z m358 -108 c3 -6 -1 -7 -9 -4 -18 7 -21 14 -7 14 6 0 13 -4 16 -10z m96
-11 c24 -7 48 -16 53 -20 13 -12 -88 16 -110 30 -14 9 -14 11 -3 7 10 -2 37
-10 60 -17z m-574 -111 c-3 -8 -6 -5 -6 6 -1 11 2 17 5 13 3 -3 4 -12 1 -19z
m10 -40 c-3 -8 -6 -5 -6 6 -1 11 2 17 5 13 3 -3 4 -12 1 -19z m1126 -166 c13
-12 43 -26 68 -31 100 -22 266 -88 304 -122 21 -19 42 -33 47 -31 5 1 7 -1 5
-5 -6 -10 48 -85 56 -77 3 3 8 0 13 -7 5 -8 3 -10 -6 -4 -9 6 -10 2 -5 -16 4
-13 11 -29 16 -35 11 -13 46 -76 89 -157 17 -32 34 -56 38 -53 4 2 8 -3 9 -12
1 -9 7 -62 13 -117 5 -55 11 -114 12 -130 2 -42 -39 -163 -70 -205 -42 -57
-96 -115 -105 -112 -5 1 -6 -2 -2 -8 3 -5 -25 -39 -62 -76 -67 -65 -156 -116
-306 -175 -26 -11 -66 -28 -89 -40 -22 -11 -59 -22 -82 -25 -22 -2 -70 -8
-106 -13 -36 -6 -150 -10 -254 -10 l-189 0 -42 34 c-23 19 -47 35 -53 35 -6 0
-9 7 -6 15 4 8 1 15 -5 15 -6 0 -11 -6 -11 -12 0 -7 -7 0 -15 15 -8 16 -27 45
-43 65 -32 42 -111 173 -129 215 -18 41 -18 116 1 241 9 60 14 111 11 114 -2
2 3 21 12 41 12 27 17 82 21 229 l4 194 124 106 c118 102 192 150 259 171 17
5 126 8 243 7 202 -3 213 -4 235 -24z m-673 -56 c-26 -14 -44 -29 -42 -37 3
-11 1 -11 -9 -2 -9 9 -21 8 -50 -8 -22 -11 -39 -15 -39 -10 0 9 23 21 111 60
62 28 83 25 29 -3z m-78 -69 c-12 -13 -20 -26 -16 -29 3 -3 0 -9 -7 -14 -8 -5
-10 -3 -4 6 5 8 3 11 -6 8 -8 -3 -14 -10 -14 -15 0 -6 -4 -15 -9 -20 -5 -5 -6
-3 -2 5 4 6 2 12 -4 12 -6 0 -13 -7 -16 -15 -4 -8 -10 -13 -15 -10 -19 12 16
55 60 74 58 26 59 26 33 -2z m1273 -198 c9 -17 15 -33 13 -35 -3 -2 -12 12
-21 31 -21 43 -13 47 8 4z m96 -105 c11 -19 19 -41 17 -49 -2 -9 -18 11 -37
47 -35 64 -20 65 20 2z m-1529 -6 c-5 -5 -8 0 -6 14 4 40 7 44 11 19 3 -13 1
-27 -5 -33z m1508 -23 c14 -19 14 -19 -2 -6 -10 7 -18 18 -18 24 0 6 1 8 3 6
1 -2 9 -13 17 -24z m77 -312 c-3 -10 -5 -4 -5 12 0 17 2 24 5 18 2 -7 2 -21 0
-30z m-141 -353 c0 -10 -2 -17 -5 -15 -2 3 -11 -1 -19 -8 -11 -9 -11 -4 2 16
22 32 22 32 22 7z m-46 -44 c0 -2 -8 -10 -17 -17 -16 -13 -17 -12 -4 4 13 16
21 21 21 13z m-1311 -90 c9 -11 10 -16 4 -12 -9 5 -11 2 -7 -8 3 -9 10 -13 15
-10 5 3 9 0 9 -7 0 -7 10 -24 23 -38 l22 -25 -30 19 c-38 23 -54 44 -55 70 0
11 -7 29 -15 39 -8 11 -15 27 -15 35 1 9 8 3 17 -14 8 -16 23 -39 32 -49z m81
-173 c0 -11 -24 1 -45 22 -38 37 -29 50 10 14 19 -18 35 -34 35 -36z m4 31 c7
-19 2 -18 -19 6 -16 17 -16 20 -3 15 9 -4 19 -13 22 -21z m70 -39 c16 -12 17
-15 4 -15 -8 0 -21 7 -28 15 -16 19 -1 19 24 0z m1163 -182 c-3 -10 -5 -2 -5
17 0 19 2 27 5 18 2 -10 2 -26 0 -35z m-834 -10 c-7 -2 -19 -2 -25 0 -7 3 -2
5 12 5 14 0 19 -2 13 -5z m-373 -13 c12 -7 11 -9 -5 -8 -11 0 -29 -3 -40 -6
-20 -8 -20 -7 -1 8 23 19 26 19 46 6z m804 1 c3 -4 -6 -6 -19 -3 -14 2 -25 6
-25 8 0 8 39 4 44 -5z m-832 -60 c-8 -4 -12 -10 -10 -13 7 -8 -66 -117 -75
-111 -6 3 -7 1 -3 -5 3 -6 -5 -27 -19 -48 -31 -45 -31 -34 -4 66 20 73 24 78
63 98 41 21 74 30 48 13z m-137 -118 c-8 -68 -24 -94 -26 -42 -1 18 -1 37 0
42 0 4 -3 7 -8 7 -5 0 -7 9 -4 21 4 13 8 17 13 9 5 -8 9 -7 13 4 13 34 19 14
12 -41z m1176 0 c13 -16 12 -17 -3 -4 -10 7 -18 15 -18 17 0 8 8 3 21 -13z
m49 -76 c0 -13 -25 16 -33 38 -6 16 -3 15 13 -5 11 -14 20 -29 20 -33z m220
-425 c0 -13 -12 -22 -22 -16 -10 6 -1 24 13 24 5 0 9 -4 9 -8z m33 -47 c-3 -9
-8 -14 -10 -11 -3 3 -2 9 2 15 9 16 15 13 8 -4z m-1453 -161 c0 -8 -4 -12 -10
-9 -5 3 -10 10 -10 16 0 5 5 9 10 9 6 0 10 -7 10 -16z m17 -6 c-3 -8 -6 -5 -6
6 -1 11 2 17 5 13 3 -3 4 -12 1 -19z m-87 -18 c0 -5 -4 -10 -10 -10 -5 0 -10
5 -10 10 0 6 5 10 10 10 6 0 10 -4 10 -10z m-3 -42 c-3 -8 -6 -5 -6 6 -1 11 2
17 5 13 3 -3 4 -12 1 -19z m-90 -63 c0 -8 -4 -12 -9 -9 -4 3 -8 0 -8 -7 0 -7
-2 -10 -5 -7 -7 7 5 38 14 38 4 0 8 -7 8 -15z m-17 -120 c0 -2 -10 -9 -22 -15
-22 -11 -22 -10 -4 4 21 17 26 19 26 11z m193 -12 c-7 -2 -21 -2 -30 0 -10 3
-4 5 12 5 17 0 24 -2 18 -5z m-55 -20 c-10 -2 -28 -2 -40 0 -13 2 -5 4 17 4
22 1 32 -1 23 -4z"/>
<path d="M1163 2523 c9 -2 23 -2 30 0 6 3 -1 5 -18 5 -16 0 -22 -2 -12 -5z"/>
<path d="M3590 2742 c0 -6 15 -23 33 -38 17 -15 31 -31 30 -36 -2 -4 3 -8 10
-8 14 -1 56 -43 80 -80 14 -22 42 -106 61 -180 11 -42 46 -421 46 -490 0 -36
-7 -94 -15 -129 -9 -36 -13 -71 -10 -79 4 -12 -22 -256 -44 -397 -8 -54 -41
-127 -73 -161 -19 -22 -19 -22 3 -37 20 -14 25 -14 52 -1 24 13 34 13 58 3 26
-10 32 -9 45 7 14 18 15 18 5 -3 -14 -28 -14 -33 2 -33 6 0 24 14 39 32 l27
33 1 -28 c0 -20 -4 -26 -12 -21 -10 6 -10 4 0 -7 14 -16 16 -33 2 -24 -5 3
-10 2 -10 -3 0 -5 8 -12 18 -15 9 -2 25 -8 35 -12 13 -6 17 -2 17 16 0 25 10
20 14 -8 2 -13 13 -19 39 -21 42 -4 51 16 30 63 l-14 30 20 -22 c10 -13 23
-23 28 -23 5 0 20 21 32 48 22 47 26 106 8 130 -5 6 -6 12 -2 12 4 0 3 6 -3
13 -11 14 -90 207 -103 252 -23 80 -28 168 -14 230 18 74 41 143 59 170 7 11
15 25 17 30 1 6 11 19 22 30 10 11 39 52 64 90 64 99 112 141 261 227 23 13
39 27 36 31 -3 3 6 4 20 3 15 -2 24 -1 22 2 -10 9 67 53 86 49 10 -3 16 -1 12
4 -3 5 44 9 110 9 l116 0 1 63 c1 34 3 72 4 85 2 23 -25 62 -44 62 -6 0 -11 6
-11 13 0 9 -2 9 -9 -1 -6 -10 -14 -9 -41 5 -24 14 -34 15 -37 6 -3 -7 -9 -13
-14 -13 -6 0 -7 5 -4 10 3 6 -3 10 -14 10 -12 0 -20 -3 -20 -7 1 -5 1 -19 0
-32 -1 -19 -4 -21 -15 -11 -8 6 -12 18 -9 25 4 11 -4 14 -31 13 -20 -1 -40 -6
-44 -12 -4 -6 -18 -17 -32 -24 -29 -14 -63 -35 -70 -43 -3 -3 -21 -11 -40 -18
-19 -7 -44 -17 -55 -21 -44 -18 -81 -20 -154 -9 -151 23 -321 81 -321 110 0
21 -16 33 -62 48 -20 7 -38 17 -40 23 -2 6 -37 20 -78 32 -41 12 -85 26 -97
30 -14 4 -23 3 -23 -2z m1180 -141 c0 -12 -20 -36 -20 -24 0 6 -3 19 -6 27 -5
12 -2 15 10 10 9 -3 16 -9 16 -13z m-140 -91 c0 -5 -2 -10 -4 -10 -3 0 -8 5
-11 10 -3 6 -1 10 4 10 6 0 11 -4 11 -10z m-507 -21 c26 -6 46 -14 43 -16 -5
-5 -116 23 -124 33 -4 3 2 4 13 1 11 -3 42 -11 68 -18z m-109 2 c4 -5 -3 -7
-14 -4 -23 6 -26 13 -6 13 8 0 17 -4 20 -9z m289 -28 c-7 -2 -19 -2 -25 0 -7
3 -2 5 12 5 14 0 19 -2 13 -5z m-121 -352 c-7 -4 -23 -22 -37 -41 -28 -38 -35
-29 -8 10 20 29 46 50 53 44 2 -3 -1 -8 -8 -13z m-52 -101 c-6 -11 -16 -20
-22 -20 -6 0 -3 9 7 20 10 11 20 20 22 20 2 0 -1 -9 -7 -20z m-113 -212 c-3
-8 -6 -5 -6 6 -1 11 2 17 5 13 3 -3 4 -12 1 -19z m-176 -269 l-9 -34 -1 31
c-1 17 2 47 6 65 l8 34 3 -31 c2 -18 -1 -47 -7 -65z m-14 -71 c-3 -8 -6 -5 -6
6 -1 11 2 17 5 13 3 -3 4 -12 1 -19z m297 -343 c-4 -8 -10 -12 -15 -9 -14 8
-10 24 6 24 9 0 12 -6 9 -15z"/>
<path d="M1085 2281 c-11 -9 -40 -39 -65 -66 l-45 -49 50 44 c44 39 92 91 83
90 -2 -1 -12 -9 -23 -19z"/>
</g>
</svg>
