<?xml version="1.0" standalone="no"?>
<!DOCTYPE svg PUBLIC "-//W3C//DTD SVG 20010904//EN"
 "http://www.w3.org/TR/2001/REC-SVG-20010904/DTD/svg10.dtd">
<svg version="1.0" xmlns="http://www.w3.org/2000/svg"
 width="183.000000pt" height="183.000000pt" viewBox="0 0 183.000000 183.000000"
 preserveAspectRatio="xMidYMid meet">
<metadata>
Created by potrace 1.11, written by Peter Selinger 2001-2013
</metadata>
<g transform="translate(0.000000,183.000000) scale(0.100000,-0.100000)"
fill="#000000" stroke="none">
<path d="M700 1680 c-381 -98 -637 -482 -581 -871 27 -178 99 -319 235 -454
33 -33 59 -63 58 -67 -1 -5 1 -7 6 -6 14 5 71 -36 65 -46 -3 -6 -3 -8 1 -4 4
3 40 -9 79 -27 129 -59 178 -69 332 -70 161 0 223 14 349 75 44 22 83 37 88
34 5 -3 7 -1 6 4 -2 5 20 27 47 49 108 85 164 153 220 268 70 142 90 235 82
389 -6 124 -28 209 -83 318 -19 38 -34 70 -35 73 0 8 -72 88 -129 144 -30 29
-54 58 -52 63 1 5 -1 7 -6 4 -5 -3 -28 8 -53 25 -60 40 -178 88 -258 105 -97
20 -279 17 -371 -6z m352 -105 c101 -21 225 -86 304 -158 76 -70 127 -134 117
-150 -3 -5 -1 -7 4 -4 15 9 71 -121 88 -204 21 -98 19 -220 -4 -311 -28 -109
-96 -238 -116 -220 -5 4 -5 1 -1 -6 8 -14 -115 -139 -161 -163 -15 -8 -42 -23
-59 -35 -92 -60 -293 -96 -420 -75 -70 12 -197 55 -224 75 -8 7 -28 18 -44 26
-51 26 -163 138 -206 206 -56 88 -79 145 -96 232 -42 219 26 436 189 604 157
162 399 232 629 183z"/>
<path d="M580 932 l0 -449 88 1 87 1 2 185 1 185 79 3 78 2 92 -190 91 -190
94 1 c51 0 95 2 99 4 3 3 -23 61 -58 130 -35 69 -60 125 -56 125 4 0 3 4 -3 8
-16 10 -75 132 -69 142 3 4 17 11 32 15 27 6 85 43 91 57 2 5 9 5 15 1 7 -3 9
-3 5 2 -4 4 1 20 12 35 52 72 46 204 -11 273 -70 85 -164 107 -456 107 l-213
0 0 -448z m471 301 c42 -27 59 -59 59 -116 0 -101 -65 -137 -246 -137 l-103 0
-3 118 c-5 182 -19 165 130 160 110 -3 132 -6 163 -25z"/>
</g>
</svg>
